<mxfile host="app.diagrams.net" modified="2022-01-19T15:23:26.406Z" agent="5.0 (Windows NT 10.0; Win64; x64) AppleWebKit/537.36 (KHTML, like Gecko) Chrome/97.0.4692.71 Safari/537.36" etag="6M2W3GJSfkHmiVVUgB6X" version="15.5.9" type="github">
  <diagram id="QfRhPzJHcpeXXyjZQgUO" name="Page-1">
    <mxGraphModel dx="1568" dy="845" grid="1" gridSize="10" guides="1" tooltips="1" connect="1" arrows="1" fold="1" page="1" pageScale="1" pageWidth="827" pageHeight="1169" math="0" shadow="0">
      <root>
        <mxCell id="0" />
        <mxCell id="1" parent="0" />
        <mxCell id="CsjWyMOaq0Bit9EHdIOy-13" value="" style="ellipse;whiteSpace=wrap;html=1;aspect=fixed;fillColor=#fff2cc;strokeColor=#d6b656;" vertex="1" parent="1">
          <mxGeometry x="390" y="120" width="20" height="20" as="geometry" />
        </mxCell>
        <mxCell id="CsjWyMOaq0Bit9EHdIOy-1" value="" style="whiteSpace=wrap;html=1;aspect=fixed;" vertex="1" parent="1">
          <mxGeometry x="330" y="260" width="190" height="190" as="geometry" />
        </mxCell>
        <mxCell id="CsjWyMOaq0Bit9EHdIOy-2" value="" style="line;strokeWidth=2;direction=south;html=1;" vertex="1" parent="1">
          <mxGeometry x="424" y="450" width="10" height="110" as="geometry" />
        </mxCell>
        <mxCell id="CsjWyMOaq0Bit9EHdIOy-3" value="" style="line;strokeWidth=2;direction=south;html=1;" vertex="1" parent="1">
          <mxGeometry x="424" y="150" width="10" height="110" as="geometry" />
        </mxCell>
        <mxCell id="CsjWyMOaq0Bit9EHdIOy-5" value="" style="line;strokeWidth=4;html=1;perimeter=backbonePerimeter;points=[];outlineConnect=0;" vertex="1" parent="1">
          <mxGeometry x="349" y="150" width="160" height="10" as="geometry" />
        </mxCell>
        <mxCell id="CsjWyMOaq0Bit9EHdIOy-6" value="" style="line;strokeWidth=4;html=1;perimeter=backbonePerimeter;points=[];outlineConnect=0;" vertex="1" parent="1">
          <mxGeometry x="349" y="550" width="160" height="10" as="geometry" />
        </mxCell>
        <mxCell id="CsjWyMOaq0Bit9EHdIOy-7" value="" style="line;strokeWidth=4;html=1;perimeter=backbonePerimeter;points=[];outlineConnect=0;" vertex="1" parent="1">
          <mxGeometry x="330" y="390" width="190" height="10" as="geometry" />
        </mxCell>
        <mxCell id="CsjWyMOaq0Bit9EHdIOy-8" value="" style="line;strokeWidth=2;direction=south;html=1;" vertex="1" parent="1">
          <mxGeometry x="420" y="290" width="10" height="30" as="geometry" />
        </mxCell>
        <mxCell id="CsjWyMOaq0Bit9EHdIOy-10" value="" style="line;strokeWidth=2;html=1;" vertex="1" parent="1">
          <mxGeometry x="412.75" y="300" width="24.5" height="10" as="geometry" />
        </mxCell>
        <mxCell id="CsjWyMOaq0Bit9EHdIOy-12" value="" style="ellipse;whiteSpace=wrap;html=1;aspect=fixed;fillColor=#fff2cc;strokeColor=#d6b656;" vertex="1" parent="1">
          <mxGeometry x="420" y="100" width="20" height="20" as="geometry" />
        </mxCell>
        <mxCell id="CsjWyMOaq0Bit9EHdIOy-14" value="" style="ellipse;whiteSpace=wrap;html=1;aspect=fixed;fillColor=#fff2cc;strokeColor=#d6b656;" vertex="1" parent="1">
          <mxGeometry x="450" y="120" width="20" height="20" as="geometry" />
        </mxCell>
        <mxCell id="CsjWyMOaq0Bit9EHdIOy-16" value="" style="endArrow=classic;html=1;rounded=0;" edge="1" parent="1">
          <mxGeometry width="50" height="50" relative="1" as="geometry">
            <mxPoint x="480" y="110" as="sourcePoint" />
            <mxPoint x="550" y="80" as="targetPoint" />
          </mxGeometry>
        </mxCell>
        <mxCell id="CsjWyMOaq0Bit9EHdIOy-17" value="" style="endArrow=classic;html=1;rounded=0;" edge="1" parent="1">
          <mxGeometry width="50" height="50" relative="1" as="geometry">
            <mxPoint x="510" y="150" as="sourcePoint" />
            <mxPoint x="590" y="150" as="targetPoint" />
          </mxGeometry>
        </mxCell>
        <mxCell id="CsjWyMOaq0Bit9EHdIOy-18" value="" style="endArrow=classic;html=1;rounded=0;" edge="1" parent="1">
          <mxGeometry width="50" height="50" relative="1" as="geometry">
            <mxPoint x="530" y="260" as="sourcePoint" />
            <mxPoint x="610" y="250" as="targetPoint" />
          </mxGeometry>
        </mxCell>
        <mxCell id="CsjWyMOaq0Bit9EHdIOy-19" value="" style="endArrow=classic;html=1;rounded=0;entryX=-0.062;entryY=0.453;entryDx=0;entryDy=0;entryPerimeter=0;" edge="1" parent="1" target="CsjWyMOaq0Bit9EHdIOy-27">
          <mxGeometry width="50" height="50" relative="1" as="geometry">
            <mxPoint x="450" y="310" as="sourcePoint" />
            <mxPoint x="620" y="300" as="targetPoint" />
          </mxGeometry>
        </mxCell>
        <mxCell id="CsjWyMOaq0Bit9EHdIOy-20" value="" style="endArrow=classic;html=1;rounded=0;" edge="1" parent="1">
          <mxGeometry width="50" height="50" relative="1" as="geometry">
            <mxPoint x="530" y="390" as="sourcePoint" />
            <mxPoint x="630" y="400" as="targetPoint" />
          </mxGeometry>
        </mxCell>
        <mxCell id="CsjWyMOaq0Bit9EHdIOy-21" value="" style="endArrow=classic;html=1;rounded=0;" edge="1" parent="1">
          <mxGeometry width="50" height="50" relative="1" as="geometry">
            <mxPoint x="530" y="450" as="sourcePoint" />
            <mxPoint x="610" y="490" as="targetPoint" />
          </mxGeometry>
        </mxCell>
        <mxCell id="CsjWyMOaq0Bit9EHdIOy-22" value="" style="endArrow=classic;html=1;rounded=0;" edge="1" parent="1">
          <mxGeometry width="50" height="50" relative="1" as="geometry">
            <mxPoint x="510" y="550" as="sourcePoint" />
            <mxPoint x="600" y="580" as="targetPoint" />
          </mxGeometry>
        </mxCell>
        <mxCell id="CsjWyMOaq0Bit9EHdIOy-24" value="&lt;h3&gt;&lt;font style=&quot;font-size: 22px&quot;&gt;离群点&lt;/font&gt;&lt;/h3&gt;" style="rounded=0;whiteSpace=wrap;html=1;" vertex="1" parent="1">
          <mxGeometry x="560" y="40" width="120" height="60" as="geometry" />
        </mxCell>
        <mxCell id="CsjWyMOaq0Bit9EHdIOy-25" value="&lt;h3&gt;&lt;font style=&quot;font-size: 22px&quot;&gt;上界&lt;/font&gt;&lt;/h3&gt;" style="rounded=0;whiteSpace=wrap;html=1;" vertex="1" parent="1">
          <mxGeometry x="600" y="120" width="120" height="60" as="geometry" />
        </mxCell>
        <mxCell id="CsjWyMOaq0Bit9EHdIOy-26" value="&lt;h3&gt;&lt;font style=&quot;font-size: 22px&quot;&gt;上四分位&lt;/font&gt;&lt;/h3&gt;" style="rounded=0;whiteSpace=wrap;html=1;" vertex="1" parent="1">
          <mxGeometry x="620" y="210" width="120" height="60" as="geometry" />
        </mxCell>
        <mxCell id="CsjWyMOaq0Bit9EHdIOy-27" value="&lt;h3&gt;&lt;font style=&quot;font-size: 22px&quot;&gt;均值&lt;/font&gt;&lt;/h3&gt;" style="rounded=0;whiteSpace=wrap;html=1;" vertex="1" parent="1">
          <mxGeometry x="630" y="290" width="120" height="60" as="geometry" />
        </mxCell>
        <mxCell id="CsjWyMOaq0Bit9EHdIOy-28" value="&lt;h3&gt;&lt;font style=&quot;font-size: 22px&quot;&gt;中位数&lt;/font&gt;&lt;/h3&gt;" style="rounded=0;whiteSpace=wrap;html=1;" vertex="1" parent="1">
          <mxGeometry x="640" y="380" width="120" height="60" as="geometry" />
        </mxCell>
        <mxCell id="CsjWyMOaq0Bit9EHdIOy-29" value="&lt;h3&gt;&lt;font style=&quot;font-size: 22px&quot;&gt;下四分位&lt;/font&gt;&lt;/h3&gt;" style="rounded=0;whiteSpace=wrap;html=1;" vertex="1" parent="1">
          <mxGeometry x="620" y="460" width="120" height="60" as="geometry" />
        </mxCell>
        <mxCell id="CsjWyMOaq0Bit9EHdIOy-30" value="&lt;h3&gt;&lt;font style=&quot;font-size: 22px&quot;&gt;下界&lt;/font&gt;&lt;/h3&gt;" style="rounded=0;whiteSpace=wrap;html=1;" vertex="1" parent="1">
          <mxGeometry x="610" y="555" width="120" height="60" as="geometry" />
        </mxCell>
      </root>
    </mxGraphModel>
  </diagram>
</mxfile>
